<?xml version="1.0" standalone="no"?>
<!DOCTYPE svg PUBLIC "-//W3C//DTD SVG 1.1//EN" "http://www.w3.org/Graphics/SVG/1.1/DTD/svg11.dtd"><svg xmlns="http://www.w3.org/2000/svg" style="background-color:#FFF" width="609.7" height="386.2"><path stroke="black" fill="none" stroke-width="1" d="M409.5, 7.5L410.89, 9.21L411.89, 11.04L412.5, 13L412.7, 15.1L412.7, 144.6L412.36, 151.8L411.33, 158.99L409.58, 166.16L407.1, 173.3L404.1, 180.22L400.78, 186.74L397.12, 192.86L393.1, 198.6L388.71, 204.1L383.94, 209.5L378.77, 214.83L373.2, 220.1L367.54, 225.13L362.1, 229.7L356.89, 233.82L351.9, 237.5L341.92, 244.24L331.5, 250.6L328.94, 252.07L326.57, 253.42L324.39, 254.63L322.41, 255.72L320.62, 256.7L319.03, 257.55L317.62, 258.28L316.4, 258.9L314.26, 259.95L312.35, 260.86L310.66, 261.64L309.2, 262.3L307.07, 263.06L304.8, 263.3L302.49, 263.06L300.4, 262.3L298.94, 261.64L297.25, 260.86L295.34, 259.95L293.2, 258.9L291.98, 258.31L290.57, 257.59L288.98, 256.74L287.19, 255.76L285.21, 254.66L283.03, 253.43L280.66, 252.08L278.1, 250.6L267.68, 244.24L257.7, 237.5L252.71, 233.82L247.5, 229.7L242.06, 225.13L236.4, 220.1L230.83, 214.83L225.66, 209.5L220.89, 204.1L216.5, 198.6L212.48, 192.86L208.82, 186.74L205.5, 180.22L202.5, 173.3L200.06, 166.17L198.31, 159.03L197.25, 151.84L196.9, 144.6L196.9, 15.1L197.1, 12.98L197.71, 11L198.71, 9.17L200.1, 7.5L201.77, 6.11L203.6, 5.11L205.58, 4.5L207.7, 4.3L401.9, 4.3L404.02, 4.5L406, 5.11L407.83, 6.11L409.5, 7.5"/><path stroke="black" fill="none" stroke-width="1" d="M384.5, 145.8L384.27, 150.18L383.61, 154.51L382.53, 158.79L381.08, 163.01L379.28, 167.17L377.15, 171.26L374.74, 175.28L372.06, 179.21L369.15, 183.06L366.04, 186.81L359.31, 194L352.12, 200.74L344.7, 206.99L337.28, 212.68L330.09, 217.78L326.65, 220.08L323.36, 222.22L320.25, 224.19L317.34, 225.97L314.66, 227.57L312.25, 228.97L310.12, 230.18L308.32, 231.18L306.87, 231.97L305.79, 232.54L305.13, 232.88L304.9, 233L304.9, 32L384.5, 32L384.5, 145.8"/></svg>